<svg height="512pt" viewBox="0 -7 512 512" width="512pt" xmlns="http://www.w3.org/2000/svg"><path d="m494.5 0h-477c-9.648438 0-17.5 7.851562-17.5 17.5v307.839844c0 9.648437 7.851562 17.5 17.5 17.5h87.90625l-57.464844 144.242187c-1.535156 3.847657.34375 8.210938 4.191406 9.742188.910157.363281 1.847657.535156 2.773438.535156 2.980469 0 5.796875-1.789063 6.96875-4.726563l59.679688-149.792968h38.628906v33.34375c0 6.890625 5.605468 12.5 12.5 12.5h75.816406v101.171875c0 4.144531 3.359375 7.5 7.5 7.5 4.144531 0 7.5-3.355469 7.5-7.5v-101.171875h75.816406c6.890625 0 12.5-5.609375 12.5-12.5v-33.34375h38.628906l59.679688 149.792968c1.171875 2.9375 3.988281 4.726563 6.96875 4.726563.925781 0 1.863281-.171875 2.773438-.535156 3.847656-1.53125 5.726562-5.894531 4.191406-9.742188l-57.464844-144.238281h87.90625c9.648438 0 17.5-7.851562 17.5-17.5v-307.84375c0-9.648438-7.851562-17.5-17.5-17.5zm-157.683594 373.683594h-161.632812v-30.84375h161.632812zm160.183594-48.34375c0 1.378906-1.121094 2.5-2.5 2.5h-378.171875c-.007813 0-.011719 0-.019531 0h-98.808594c-1.378906 0-2.5-1.121094-2.5-2.5v-307.839844c0-1.378906 1.121094-2.5 2.5-2.5h477c1.378906 0 2.5 1.121094 2.5 2.5zm0 0"/><path d="m463.507812 36.554688h-117.777343c-4.144531 0-7.5 3.359374-7.5 7.5 0 4.140624 3.355469 7.5 7.5 7.5h115.277343v239.734374h-408.351562v-239.734374h258.074219c4.144531 0 7.5-3.359376 7.5-7.5 0-4.140626-3.355469-7.5-7.5-7.5h-260.574219c-6.890625 0-12.5 5.605468-12.5 12.5v244.734374c0 6.890626 5.609375 12.5 12.5 12.5h413.351562c6.890626 0 12.5-5.609374 12.5-12.5v-244.734374c0-6.894532-5.609374-12.5-12.5-12.5zm0 0"/><path d="m260.660156 170.765625c-2.929687-2.929687-7.675781-2.933594-10.605468-.007813l-8.84375 8.832032-8.84375-8.832032c-2.929688-2.925781-7.679688-2.921874-10.605469.007813s-2.925781 7.679687.007812 10.605469l8.828125 8.816406-8.828125 8.816406c-2.933593 2.929688-2.933593 7.675782-.007812 10.605469 1.464843 1.46875 3.382812 2.203125 5.304687 2.203125 1.917969 0 3.835938-.734375 5.300782-2.195312l8.84375-8.832032 8.84375 8.832032c1.464843 1.460937 3.382812 2.195312 5.300781 2.195312s3.839843-.734375 5.304687-2.203125c2.929688-2.929687 2.925782-7.679687-.007812-10.605469l-8.828125-8.816406 8.828125-8.816406c2.929687-2.925782 2.933594-7.675782.007812-10.605469zm0 0"/><path d="m317.605469 228.769531c1.21875.746094 2.570312 1.101563 3.902343 1.101563 2.523438 0 4.992188-1.277344 6.40625-3.59375l28.285157-46.300782c2.160156-3.535156 1.042969-8.152343-2.488281-10.3125-3.535157-2.15625-8.152344-1.042968-10.3125 2.492188l-7.742188 12.675781-7.742188-12.675781c-2.160156-3.535156-6.777343-4.648438-10.3125-2.492188-3.535156 2.160157-4.648437 6.777344-2.488281 10.3125l11.753907 19.242188-11.753907 19.242188c-2.160156 3.53125-1.042969 8.148437 2.492188 10.308593zm0 0"/><path d="m278.835938 182.6875c-4.144532 0-7.5 3.359375-7.5 7.5s3.355468 7.5 7.5 7.5h20c4.144531 0 7.5-3.359375 7.5-7.5s-3.355469-7.5-7.5-7.5zm0 0"/><path d="m382.730469 135.480469c0-4.144531-3.359375-7.5-7.5-7.5h-170.84375c-3.300781 0-6.210938 2.15625-7.171875 5.308593l-21.644532 70.917969-12.785156-31.003906c-1.582031-3.828125-5.964844-5.652344-9.792968-4.070313-3.832032 1.578126-5.652344 5.960938-4.074219 9.792969l20.773437 50.375c1.160156 2.820313 3.90625 4.640625 6.929688 4.640625.121094 0 .238281 0 .359375-.007812 3.164062-.148438 5.894531-2.269532 6.816406-5.300782l26.140625-85.652343h165.292969c4.140625 0 7.5-3.359375 7.5-7.5zm0 0"/><path d="m170.414062 164.304688c.910157 0 1.828126-.164063 2.707032-.507813 2.886718-1.117187 4.789062-3.894531 4.789062-6.992187v-33.847657c0-4.144531-3.355468-7.5-7.5-7.5-4.140625 0-7.5 3.355469-7.5 7.5v14.507813l-17.050781-18.675782c-2.089844-2.289062-5.367187-3.054687-8.25-1.9375-2.886719 1.121094-4.789063 3.898438-4.789063 6.992188v31.992188c0 4.140624 3.359376 7.5 7.5 7.5 4.140626 0 7.5-3.359376 7.5-7.5v-12.652344l17.050782 18.675781c1.449218 1.589844 3.472656 2.445313 5.542968 2.445313zm0 0"/></svg>